<?xml version="1.0" encoding="UTF-8" standalone="no" ?>
<!DOCTYPE svg PUBLIC "-//W3C//DTD SVG 1.1//EN" "http://www.w3.org/Graphics/SVG/1.1/DTD/svg11.dtd">
<svg xmlns="http://www.w3.org/2000/svg" xmlns:xlink="http://www.w3.org/1999/xlink" version="1.1" width="225" height="217" viewBox="0 0 225 217" xml:space="preserve">
<desc>Created with Fabric.js 5.3.0</desc>
<defs>
</defs>
<g transform="matrix(-0.9075633659 2.7931928302 -2.6499785663 -0.8610302308 120.2306585998 102.9920641923)" id="WEyheQAPNqXhtua-tgMv1"  >
<path style="stroke: none; stroke-width: 1; stroke-dasharray: none; stroke-linecap: butt; stroke-dashoffset: 0; stroke-linejoin: miter; stroke-miterlimit: 4; fill: rgb(179,181,179); fill-rule: nonzero; opacity: 1;"  transform=" translate(0, 0)" d="M -37.56082 -2.97329 C -39.00821 -7.65648 -37.42505 -12.789150000000001 -33.64153 -15.67976 L -6.575070000000004 -36.35854 L -6.575070000000004 -36.35854 C -2.646190000000004 -39.360209999999995 2.667989999999996 -39.360209999999995 6.596869999999996 -36.35854 L 33.590379999999996 -15.735499999999998 L 33.590379999999996 -15.735499999999998 C 37.417379999999994 -12.811669999999998 39.018739999999994 -7.620009999999999 37.554719999999996 -2.882999999999999 L 27.140959999999996 30.811780000000002 L 27.140959999999996 30.811780000000002 C 25.703659999999996 35.462320000000005 21.590369999999997 38.60978 16.950059999999997 38.60978 L -16.6816 38.60978 L -16.6816 38.60978 C -21.46901 38.60978 -25.712690000000002 35.36254 -27.19556 30.56457 z" stroke-linecap="round" />
</g>
<g transform="matrix(2.4931858265 0 0 2.4931858265 112.7823472692 100.3215441537)" id="zhaxw83Hh2caoAWiQHRgT"  >
<g style=""   >
		<g transform="matrix(1 0 0 1 0 0)" id="qWeYPORYxzqxpiryL46Wi"  >
<path style="stroke: none; stroke-width: 1; stroke-dasharray: none; stroke-linecap: butt; stroke-dashoffset: 0; stroke-linejoin: miter; stroke-miterlimit: 4; fill: rgb(255,255,255); fill-rule: nonzero; opacity: 1;"  transform=" translate(-40, -40)" d="M 40 1.6 C 18.8 1.6 1.6 18.8 1.6 40 C 1.6 61.2 18.8 78.4 40 78.4 C 61.2 78.4 78.4 61.2 78.4 40 C 78.4 18.799999999999997 61.2 1.6 40 1.6 z M 39.2 3.6 L 40.800000000000004 3.6 L 40.800000000000004 13 L 39.2 13 L 39.2 3.6 z M 8.1 22.4 L 13.8 25.4 L 13.100000000000001 26.799999999999997 L 7.400000000000001 23.799999999999997 L 8.1 22.4 z M 3.6 39.2 L 13 39.2 L 13 40.800000000000004 L 3.6 40.800000000000004 L 3.6 39.2 z M 10 60.7 L 9.1 59.400000000000006 L 14.5 55.800000000000004 L 15.4 57.1 L 10 60.7 z M 21.3 8.7 L 24.7 14.2 L 23.4 15 L 20 9.5 L 21.3 8.7 z M 23.9 72.7 L 22.5 72 L 25.5 66.3 L 26.9 67 L 23.9 72.7 z M 40.8 76.4 L 39.199999999999996 76.4 L 39.199999999999996 66.60000000000001 L 40.8 66.60000000000001 L 40.8 76.4 z M 53.1 13 L 56.1 7.3 L 57.5 8 L 54.5 13.7 L 53.1 13 z M 58.7 71.3 L 55.300000000000004 65.8 L 56.6 65 L 60 70.5 L 58.7 71.3 z M 71.9 57.6 L 66.2 54.6 L 66.9 53.2 L 72.60000000000001 56.2 L 71.9 57.6 z M 76.4 40.8 L 66.5 40.8 L 66.5 39.199999999999996 L 76.4 39.199999999999996 L 76.4 40.8 z M 70.9 20.6 L 65.5 24.200000000000003 L 64.6 22.900000000000002 L 70 19.3 L 70.9 20.6 z" stroke-linecap="round" />
</g>
		<g transform="matrix(1 0 0 1 0 0)" id="tavY6UuLKKUEhvXdo5VwR"  >
<path style="stroke: none; stroke-width: 1; stroke-dasharray: none; stroke-linecap: butt; stroke-dashoffset: 0; stroke-linejoin: miter; stroke-miterlimit: 4; fill: rgb(179,181,179); fill-rule: nonzero; opacity: 1;"  transform=" translate(-40, -40)" d="M 14.8 56.3 L 15.100000000000001 56.699999999999996 C 15.3 56.99999999999999 15.200000000000001 57.3 14.900000000000002 57.49999999999999 L 10.400000000000002 60.39999999999999 C 10.100000000000001 60.599999999999994 9.800000000000002 60.49999999999999 9.600000000000001 60.19999999999999 L 9.3 59.79999999999999 C 9.100000000000001 59.49999999999999 9.200000000000001 59.19999999999999 9.5 58.99999999999999 L 14 56.099999999999994 C 14.3 56 14.7 56.1 14.8 56.3 z M 24.4 13.7 L 21.599999999999998 9.2 C 21.4 8.899999999999999 21.099999999999998 8.899999999999999 20.799999999999997 9 L 20.4 9.2 C 20.099999999999998 9.399999999999999 20.099999999999998 9.7 20.2 10 L 23 14.5 C 23.2 14.8 23.5 14.8 23.8 14.7 L 24.2 14.5 C 24.5 14.3 24.6 14 24.4 13.7 z M 23 72.2 L 23.4 72.4 C 23.7 72.5 24 72.4 24.2 72.2 L 26.7 67.5 C 26.8 67.2 26.7 66.9 26.5 66.7 L 26 66.5 C 25.7 66.4 25.4 66.5 25.2 66.7 L 22.7 71.4 C 22.6 71.7 22.7 72.1 23 72.2 z M 13.3 25.1 L 8.600000000000001 22.6 C 8.3 22.5 8.000000000000002 22.6 7.800000000000002 22.8 L 7.600000000000001 23.2 C 7.500000000000002 23.5 7.600000000000001 23.8 7.800000000000002 24 L 12.500000000000002 26.5 C 12.800000000000002 26.6 13.100000000000001 26.5 13.300000000000002 26.3 L 13.500000000000002 25.900000000000002 C 13.7 25.6 13.6 25.3 13.3 25.1 z M 12.4 39.2 L 4.1 39.2 C 3.8 39.2 3.4999999999999996 39.400000000000006 3.4999999999999996 39.800000000000004 L 3.4999999999999996 40.300000000000004 C 3.4999999999999996 40.6 3.6999999999999997 40.900000000000006 4.1 40.900000000000006 L 12.4 40.900000000000006 C 12.700000000000001 40.900000000000006 13 40.7 13 40.300000000000004 L 13 39.800000000000004 C 13 39.5 12.7 39.2 12.4 39.2 z M 40.2 3.6 L 39.7 3.6 C 39.400000000000006 3.6 39.1 3.8000000000000003 39.1 4.2 L 39.1 12.5 C 39.1 12.8 39.300000000000004 13.1 39.7 13.1 L 40.2 13.1 C 40.5 13.1 40.800000000000004 12.9 40.800000000000004 12.5 L 40.800000000000004 4.1 C 40.8 3.8 40.5 3.6 40.2 3.6 z M 39.8 76.4 L 40.3 76.4 C 40.599999999999994 76.4 40.9 76.2 40.9 75.80000000000001 L 40.9 67.10000000000001 C 40.9 66.80000000000001 40.699999999999996 66.50000000000001 40.3 66.50000000000001 L 39.8 66.50000000000001 C 39.5 66.50000000000001 39.199999999999996 66.70000000000002 39.199999999999996 67.10000000000001 L 39.199999999999996 75.80000000000001 C 39.2 76.2 39.5 76.4 39.8 76.4 z M 65.9 23.8 L 70.4 20.900000000000002 C 70.7 20.700000000000003 70.7 20.400000000000002 70.60000000000001 20.1 L 70.30000000000001 19.700000000000003 C 70.10000000000001 19.400000000000002 69.80000000000001 19.400000000000002 69.50000000000001 19.500000000000004 L 65.00000000000001 22.400000000000002 C 64.70000000000002 22.6 64.70000000000002 22.900000000000002 64.80000000000001 23.200000000000003 L 65.10000000000001 23.6 C 65.3 23.9 65.7 24 65.9 23.8 z M 66.7 54.9 L 71.4 57.4 C 71.7 57.5 72 57.4 72.2 57.199999999999996 L 72.4 56.8 C 72.5 56.5 72.4 56.199999999999996 72.2 56 L 67.5 53.5 C 67.2 53.4 66.9 53.5 66.7 53.7 L 66.5 54.1 C 66.3 54.4 66.4 54.7 66.7 54.9 z M 67.1 40.8 L 75.89999999999999 40.8 C 76.19999999999999 40.8 76.49999999999999 40.599999999999994 76.49999999999999 40.199999999999996 L 76.49999999999999 39.699999999999996 C 76.49999999999999 39.4 76.29999999999998 39.099999999999994 75.89999999999999 39.099999999999994 L 67.1 39.099999999999994 C 66.8 39.099999999999994 66.5 39.3 66.5 39.699999999999996 L 66.5 40.199999999999996 C 66.6 40.5 66.8 40.8 67.1 40.8 z M 55.6 66.3 L 58.4 70.8 C 58.6 71.1 58.9 71.1 59.199999999999996 71 L 59.599999999999994 70.8 C 59.89999999999999 70.6 59.89999999999999 70.3 59.8 70 L 57 65.5 C 56.8 65.2 56.5 65.2 56.2 65.3 L 55.800000000000004 65.5 C 55.5 65.7 55.4 66 55.6 66.3 z M 55.9 7.8 L 53.4 12.5 C 53.3 12.8 53.4 13.1 53.6 13.3 L 54 13.5 C 54.3 13.6 54.6 13.5 54.8 13.3 L 57.3 8.600000000000001 C 57.4 8.3 57.3 8.000000000000002 57.099999999999994 7.800000000000002 L 56.699999999999996 7.600000000000001 C 56.3 7.4 56 7.5 55.9 7.8 z M 40.8 39.2 L 40.8 18.7 C 40.8 18.4 40.599999999999994 18.099999999999998 40.199999999999996 18.099999999999998 L 39.699999999999996 18.099999999999998 C 39.4 18.099999999999998 39.099999999999994 18.299999999999997 39.099999999999994 18.7 L 39.099999999999994 39.599999999999994 C 39.099999999999994 40.3 39.699999999999996 40.89999999999999 40.39999999999999 40.89999999999999 L 51.79999999999999 40.89999999999999 C 52.09999999999999 40.89999999999999 52.39999999999999 40.69999999999999 52.39999999999999 40.29999999999999 L 52.39999999999999 39.79999999999999 C 52.39999999999999 39.49999999999999 52.19999999999999 39.19999999999999 51.79999999999999 39.19999999999999 L 40.8 39.2 L 40.8 39.2 z" stroke-linecap="round" />
</g>
		<g transform="matrix(1 0 0 1 0 0)" id="BCaK6pmT6vRbx4VIVcZ_J"  >
<path style="stroke: none; stroke-width: 1; stroke-dasharray: none; stroke-linecap: butt; stroke-dashoffset: 0; stroke-linejoin: miter; stroke-miterlimit: 4; fill: rgb(179,181,179); fill-rule: nonzero; opacity: 1;"  transform=" translate(-40, -40)" d="M 40 0 C 17.9 0 0 17.9 0 40 C 0 62.1 17.9 80 40 80 C 62.1 80 80 62.1 80 40 C 80 17.9 62.1 0 40 0 z M 40 78.4 C 18.8 78.4 1.6 61.2 1.6 40 C 1.6 18.799999999999997 18.8 1.6 40 1.6 C 61.2 1.6 78.4 18.8 78.4 40 C 78.4 61.2 61.2 78.4 40 78.4 z" stroke-linecap="round" />
</g>
</g>
</g>
<g transform="matrix(0.6663865265 0 0 0.6663865265 112.7823472692 100.3215441537)" id="nAbFx277r28coenwf7-Hg"  >
<path style="stroke: rgb(2,241,106); stroke-width: 0; stroke-dasharray: none; stroke-linecap: butt; stroke-dashoffset: 0; stroke-linejoin: miter; stroke-miterlimit: 4; fill: rgb(255,255,255); fill-rule: nonzero; opacity: 1;"  transform=" translate(0, 0)" d="M 0 -96.1039 C 53.04935 -96.1039 96.1039 -53.04935 96.1039 0 C 96.1039 53.04935 53.04935 96.1039 0 96.1039 C -53.04935 96.1039 -96.1039 53.04935 -96.1039 0 C -96.1039 -53.04935 -53.04935 -96.1039 0 -96.1039 z" stroke-linecap="round" />
</g>
<g transform="matrix(0.7268139323 0 0 0.7268139323 135.4650647731 128.5089565199)" id="YM6jW7ppETIXfYHsN1RLm"  >
<path style="stroke: none; stroke-width: 1; stroke-dasharray: none; stroke-linecap: butt; stroke-dashoffset: 0; stroke-linejoin: miter; stroke-miterlimit: 4; fill: rgb(179,181,179); fill-rule: nonzero; opacity: 1;"  transform=" translate(0, 0)" d="M 20 0 L 40 40 L 0 40 L -40 40 L -20 0 L 0 -40 z" stroke-linecap="round" />
</g>
<g transform="matrix(1.4162506949 0 0 1.4162506949 136.5767026734 117.4820399389)" id="Qzor7786Ig8PQM5ezbaSv"  >
<path style="stroke: rgb(59,104,17); stroke-width: 0; stroke-dasharray: none; stroke-linecap: butt; stroke-dashoffset: 0; stroke-linejoin: miter; stroke-miterlimit: 4; fill: rgb(255,255,255); fill-rule: nonzero; opacity: 1;"  transform=" translate(0, 0)" d="M -15.25974 -15.25974 L 15.25974 -15.25974 L 15.25974 15.25974 L -15.25974 15.25974 z" stroke-linecap="round" />
</g>
<g transform="matrix(0.6942646867 0.7710590497 -0.7710588914 0.6942645442 89.3130241907 81.6339405691)" id="G12m0FzFmGEgL0oQaIbu_"  >
<path style="stroke: rgb(68,33,228); stroke-width: 0; stroke-dasharray: none; stroke-linecap: butt; stroke-dashoffset: 0; stroke-linejoin: miter; stroke-miterlimit: 4; fill: rgb(179,181,179); fill-rule: nonzero; opacity: 1;"  transform=" translate(-0.000005, 0)" d="M -24.67532 -14.87494 C -24.67532 -20.28754 -20.28754 -24.675330000000002 -14.874929999999999 -24.675330000000002 L 14.874940000000002 -24.675330000000002 L 14.874940000000002 -24.675330000000002 C 20.287540000000003 -24.675330000000002 24.675330000000002 -20.287550000000003 24.675330000000002 -14.874940000000002 L 24.675330000000002 14.874939999999999 L 24.675330000000002 14.874939999999999 C 24.675330000000002 17.474159999999998 23.64279 19.966929999999998 21.80486 21.804859999999998 C 19.96693 23.642789999999998 17.47416 24.67533 14.874940000000002 24.67533 L -14.874929999999999 24.67533 L -14.874929999999999 24.67533 C -20.28753 24.67533 -24.67532 20.28755 -24.67532 14.874939999999999 z" stroke-linecap="round" />
</g>
<g transform="matrix(0.5276411019 0.5860048111 -0.5045729737 0.4543195462 91.9569150149 79.2533705783)" id="CgxhjEaurDW6GK9JSRJsL"  >
<path style="stroke: rgb(19,5,144); stroke-width: 0; stroke-dasharray: none; stroke-linecap: butt; stroke-dashoffset: 0; stroke-linejoin: miter; stroke-miterlimit: 4; fill: rgb(179,181,179); fill-rule: nonzero; opacity: 1;"  transform=" translate(0, 0)" d="M -32.46753 -32.46753 L 32.46753 -32.46753 L 32.46753 32.46753 L -32.46753 32.46753 z" stroke-linecap="round" />
</g>
<g transform="matrix(0.4175085734 0.4636902466 -0.5860048111 0.5276411019 93.4474971243 111.7336465835)" id="YVHM1BST8dvTbFCvmtFs1"  >
<path style="stroke: rgb(236,189,76); stroke-width: 0; stroke-dasharray: none; stroke-linecap: butt; stroke-dashoffset: 0; stroke-linejoin: miter; stroke-miterlimit: 4; fill: rgb(255,255,255); fill-rule: nonzero; opacity: 1;"  transform=" translate(-0.000005, 0)" d="M -32.46753 -18.52006 C -32.46753 -26.22304 -24.575829999999996 -32.46753 -14.840919999999997 -32.46753 L 14.840930000000004 -32.46753 L 14.840930000000004 -32.46753 C 24.575840000000003 -32.46753 32.46754 -26.223029999999994 32.46754 -18.520059999999997 L 32.46754 18.520060000000004 L 32.46754 18.520060000000004 C 32.46754 26.223040000000005 24.57584 32.467530000000004 14.84093 32.467530000000004 L -14.84092 32.467530000000004 L -14.84092 32.467530000000004 C -24.57583 32.467530000000004 -32.46753 26.22303 -32.46753 18.520060000000004 z" stroke-linecap="round" />
</g>
<g transform="matrix(0.34485644 0.3830018781 -0.5860048111 0.5276411019 61.650085703 76.4190435199)" id="2xsMn-kl9EthL5QiXmnj3"  >
<path style="stroke: rgb(236,189,76); stroke-width: 0; stroke-dasharray: none; stroke-linecap: butt; stroke-dashoffset: 0; stroke-linejoin: miter; stroke-miterlimit: 4; fill: rgb(255,255,255); fill-rule: nonzero; opacity: 1;"  transform=" translate(-0.000005, -0.000005)" d="M -32.46753 -17.55973 C -32.46753 -25.793079999999996 -22.255409999999998 -32.46753 -9.658129999999996 -32.46753 L 13.190400000000004 -32.46753 L 13.190400000000004 -32.46753 C 23.836870000000005 -32.46753 32.46754 -26.826689999999996 32.46754 -19.868349999999996 L 32.46754 17.55974 L 32.46754 17.55974 C 32.46754 25.79309 22.25542 32.46754 9.65814 32.46754 L -13.19039 32.46754 L -13.19039 32.46754 C -23.83686 32.46754 -32.46753 26.8267 -32.46753 19.86836 z" stroke-linecap="round" />
</g>
<g transform="matrix(0.1084976292 0.1204988248 -0.3092538586 0.278453425 62.0632257226 105.6477824048)" id="oZPg1ci_tsQCpMXI5_hrA"  >
<path style="stroke: rgb(202,139,46); stroke-width: 0; stroke-dasharray: none; stroke-linecap: butt; stroke-dashoffset: 0; stroke-linejoin: miter; stroke-miterlimit: 4; fill: rgb(179,181,179); fill-rule: nonzero; opacity: 1;"  transform=" translate(0, 0)" d="M -32.46753 -32.46753 L 32.46753 -32.46753 L 32.46753 32.46753 L -32.46753 32.46753 z" stroke-linecap="round" />
</g>
</svg>